<svg version="1.1" xmlns="http://www.w3.org/2000/svg" xmlns:xlink="http://www.w3.org/1999/xlink" width="24px" height="24px" viewBox="0,0,256,256"><g fill="#dfdfdf" fill-rule="nonzero" stroke="none" stroke-width="1" stroke-linecap="butt" stroke-linejoin="miter" stroke-miterlimit="10" stroke-dasharray="" stroke-dashoffset="0" font-family="none" font-weight="none" font-size="none" text-anchor="none" style="mix-blend-mode: normal"><g transform="scale(10.66667,10.66667)"><path transform="translate(24,24) rotate(-180)" d="M0,0h24v24h-24z" opacity="0"></path><path d="M5.23,10.64c0.16955,0.20451 0.4135,0.33315 0.67803,0.35754c0.26453,0.02439 0.52789,-0.05748 0.73197,-0.22754l4.36,-3.63v11.86c0,0.55228 0.44772,1 1,1c0.55228,0 1,-0.44772 1,-1v-11.86l4.36,3.63c0.42526,0.35346 1.05654,0.29526 1.41,-0.13c0.35346,-0.42526 0.29526,-1.05654 -0.13,-1.41l-6,-5l-0.15,-0.09l-0.13,-0.07c-0.23168,-0.0894 -0.48832,-0.0894 -0.72,0l-0.13,0.07l-0.15,0.09l-6,5c-0.20451,0.16955 -0.33315,0.4135 -0.35754,0.67803c-0.02439,0.26453 0.05748,0.52789 0.22754,0.73197z"></path></g></g></svg>